<?xml version="1.0" encoding="UTF-8" standalone="no"?>
<!-- Generator: Adobe Illustrator 17.0.0, SVG Export Plug-In . SVG Version: 6.00 Build 0)  -->

<svg
   xmlns:dc="http://purl.org/dc/elements/1.1/"
   xmlns:cc="http://creativecommons.org/ns#"
   xmlns:rdf="http://www.w3.org/1999/02/22-rdf-syntax-ns#"
   xmlns:svg="http://www.w3.org/2000/svg"
   xmlns="http://www.w3.org/2000/svg"
   xmlns:sodipodi="http://sodipodi.sourceforge.net/DTD/sodipodi-0.dtd"
   xmlns:inkscape="http://www.inkscape.org/namespaces/inkscape"
   version="1.1"
   id="Layer_1"
   x="0px"
   y="0px"
   width="42px"
   height="42px"
   viewBox="0 0 42 42"
   enable-background="new 0 0 42 42"
   xml:space="preserve"
   inkscape:version="0.48.4 r9939"
   sodipodi:docname="inde2x.svg"><metadata
   id="metadata3190"><rdf:RDF><cc:Work
       rdf:about=""><dc:format>image/svg+xml</dc:format><dc:type
         rdf:resource="http://purl.org/dc/dcmitype/StillImage" /><dc:title></dc:title></cc:Work></rdf:RDF></metadata><defs
   id="defs3188">
	
	
	
	
	
	
	
	
	
	
	
</defs><sodipodi:namedview
   pagecolor="#ffffff"
   bordercolor="#666666"
   borderopacity="1"
   objecttolerance="10"
   gridtolerance="10"
   guidetolerance="10"
   inkscape:pageopacity="0"
   inkscape:pageshadow="2"
   inkscape:window-width="1920"
   inkscape:window-height="1018"
   id="namedview3186"
   showgrid="false"
   inkscape:zoom="19.505832"
   inkscape:cx="18.249556"
   inkscape:cy="22.827204"
   inkscape:window-x="-8"
   inkscape:window-y="-8"
   inkscape:window-maximized="1"
   inkscape:current-layer="Layer_1" />
<polygon
   style="fill:#3d6480"
   id="polygon3164"
   points="11.586,5.247 9.685,5.247 9.685,8.33 4.461,3.106 3.118,4.45 8.342,9.675 5.198,9.675 5.198,11.576 11.586,11.575 " /><path
   style="fill:#eff9fe"
   inkscape:connector-curvature="0"
   id="path3166"
   d="m 29.7,32.996 -0.058,-24.412 -10.207,0 -7.429,7.429 0,16.982 17.694,0 z"
   sodipodi:nodetypes="ccccccc" /><polygon
   style="fill:#3d6480"
   id="polygon3168"
   points="19.435,8.584 29.642,8.584 29.7,32.996 12.006,32.996 12.006,16.014 10.306,17.714 10.306,34.695 31.404,34.695 31.338,6.885 21.134,6.885 " />
<path
   inkscape:connector-curvature="0"
   id="path2830"
   style="fill:#3d6480;fill-opacity:1"
   d="m 20.865418,13.865046 c -4.213298,0 -7.628896,3.415731 -7.628896,7.628895 0,3.77777 2.746082,6.912736 6.351032,7.520557 l 0.0238,0.02776 c 0.01685,-0.0047 0.03342,-0.0097 0.05022,-0.01453 0.39221,0.06216 0.79439,0.09385 1.204117,0.09385 4.213294,0 7.628896,-3.414423 7.628896,-7.627592 0,-4.213294 -3.415731,-7.628891 -7.628896,-7.628891 z m -0.31325,0.760016 c 0.0045,0.002 0.0087,0.0046 0.01323,0.0066 -1.4097,0.751316 -2.561908,1.92276 -3.289773,3.346639 h -2.322301 c 1.149557,-1.928846 3.216675,-3.246478 5.598759,-3.353251 z m 0.633104,0 c 2.379383,0.108901 4.443591,1.426145 5.592229,3.353252 h -2.316992 c -0.727559,-1.423879 -1.878986,-2.59532 -3.288466,-3.346639 0.0045,-0.002 0.0087,-0.0046 0.01323,-0.0066 z m -0.430887,0.207515 v 3.145713 h -3.180083 c 0.717119,-1.342782 1.828996,-2.442346 3.180083,-3.145713 z m 0.265667,0.01983 c 1.333947,0.704153 2.431555,1.795537 3.141755,3.125915 h -3.141755 v -3.125915 z m -6.216153,3.390232 h 2.342099 c -0.438701,0.945019 -0.693319,1.992591 -0.719031,3.096811 h -2.435949 c 0.02474,-1.11836 0.315386,-2.171327 0.812881,-3.096811 z m 2.636875,0 h 3.313567 v 3.09681 h -4.061664 c 0.0267,-1.108311 0.292554,-2.156664 0.748097,-3.09681 z m 3.579235,0 h 3.27524 c 0.455366,0.940146 0.721426,1.988499 0.748096,3.09681 h -4.023336 v -3.09681 z m 3.570016,0 h 2.336833 c 0.497483,0.925484 0.788124,1.978451 0.812881,3.09681 h -2.430684 c -0.02572,-1.104219 -0.28049,-2.151791 -0.71903,-3.09681 z m -10.600138,3.36117 h 2.43595 c 0.01048,1.050619 0.227904,2.051283 0.614609,2.963322 H 14.711573 C 14.264342,23.67315 14.006595,22.66748 13.989887,21.603809 z m 2.701613,0 h 4.063018 V 24.56713 H 17.329913 C 16.928919,23.659618 16.702424,22.657253 16.6915,21.603808 z m 4.328685,0 h 4.024684 c -0.01092,1.053575 -0.237584,2.055547 -0.63841,2.963322 h -3.386274 v -2.963322 z m 4.290351,0 h 2.430683 c -0.01669,1.063671 -0.274423,2.069341 -0.721689,2.963322 h -2.323604 c 0.386477,-0.911863 0.604121,-1.912837 0.61461,-2.963322 z m -10.457428,3.22899 h 2.305117 c 0.7008,1.494671 1.861843,2.730983 3.300387,3.526375 -2.414235,-0.140931 -4.493191,-1.527738 -5.605285,-3.526375 z m 2.599846,0 h 3.301694 v 3.382315 c -1.429494,-0.744268 -2.591969,-1.932546 -3.301694,-3.382316 z m 3.567361,0 h 3.263359 c -0.703281,1.438238 -1.850357,2.61951 -3.263359,3.365128 v -3.365128 z m 3.556787,0 h 2.301156 c -1.111182,1.996807 -3.18748,3.381966 -5.598759,3.525067 -0.06838,0.0041 -0.137294,0.0072 -0.20619,0.0093 -0.01759,3.93e-4 -0.03526,7.86e-4 -0.05286,0.0012 0.01406,-3.93e-4 0.02824,-7.86e-4 0.04229,-0.0012 0.0035,-1.29e-4 0.0071,1.33e-4 0.01056,0 0.06895,-0.0023 0.137746,-0.0052 0.206191,-0.0093 1.437673,-0.795215 2.597192,-2.031182 3.297732,-3.525067 z" /></svg>