<?xml version="1.0" encoding="UTF-8" standalone="no"?>
<!-- Generator: Adobe Illustrator 17.0.0, SVG Export Plug-In . SVG Version: 6.00 Build 0)  -->

<svg
   xmlns:dc="http://purl.org/dc/elements/1.1/"
   xmlns:cc="http://creativecommons.org/ns#"
   xmlns:rdf="http://www.w3.org/1999/02/22-rdf-syntax-ns#"
   xmlns:svg="http://www.w3.org/2000/svg"
   xmlns="http://www.w3.org/2000/svg"
   xmlns:sodipodi="http://sodipodi.sourceforge.net/DTD/sodipodi-0.dtd"
   xmlns:inkscape="http://www.inkscape.org/namespaces/inkscape"
   version="1.1"
   id="Layer_1"
   x="0px"
   y="0px"
   width="42px"
   height="42px"
   viewBox="0 0 42 42"
   enable-background="new 0 0 42 42"
   xml:space="preserve"
   inkscape:version="0.48.4 r9939"
   sodipodi:docname="GisGeometryInfo.svg"><metadata
   id="metadata3025"><rdf:RDF><cc:Work
       rdf:about=""><dc:format>image/svg+xml</dc:format><dc:type
         rdf:resource="http://purl.org/dc/dcmitype/StillImage" /><dc:title /></cc:Work></rdf:RDF></metadata><defs
   id="defs3023">
	
	
	
	
	
	
</defs><sodipodi:namedview
   pagecolor="#ffffff"
   bordercolor="#666666"
   borderopacity="1"
   objecttolerance="10"
   gridtolerance="10"
   guidetolerance="10"
   inkscape:pageopacity="0"
   inkscape:pageshadow="2"
   inkscape:window-width="1920"
   inkscape:window-height="1018"
   id="namedview3021"
   showgrid="false"
   inkscape:zoom="8.0783688"
   inkscape:cx="-6.6075347"
   inkscape:cy="18.395977"
   inkscape:window-x="-8"
   inkscape:window-y="-8"
   inkscape:window-maximized="1"
   inkscape:current-layer="Layer_1" />
<rect
   style="fill:none"
   id="rect3009"
   height="5.131"
   width="11.396"
   y="28.049999"
   x="7.9429998" /><rect
   style="fill:none"
   id="rect3011"
   height="5.8239999"
   width="11.396"
   y="14.916"
   x="7.9429998" /><rect
   style="fill:none"
   id="rect3013"
   height="5.7080002"
   width="11.396"
   y="21.541"
   x="7.9429998" /><rect
   style="fill:none"
   id="rect3015"
   height="5.3850002"
   width="11.396"
   y="8.7309999"
   x="7.9429998" />
<g
   id="g13724"
   transform="matrix(0.10372349,0,0,0.10372349,-47.139475,0.9378315)"
   style="fill:#3d6480;fill-opacity:1"><g
     id="g4324"
     transform="translate(466.63355,-119.34362)"><path
       inkscape:connector-curvature="0"
       id="rect7985"
       d="m 60.46875,229.9375 -1.71875,1.71875 -25.5625,25.5625 -4.125,4.125 4.84375,0 162.4375,162.4375 1.71875,1.71875 1.71875,-1.71875 163.125,-163.15625 1.71875,-1.6875 -1.71875,-1.71875 L 337.4375,231.75 335.71875,230.03125 334,231.75 198.125,367.625 62.1875,231.65625 60.46875,229.9375 z m 0,6.875 135.9375,135.96875 1.71875,1.71875 1.71875,-1.71875 135.875,-135.875 L 357.75,258.9375 198.0625,418.625 38.34375,258.9375 l 22.125,-22.125 z"
       style="font-size:medium;font-style:normal;font-variant:normal;font-weight:normal;font-stretch:normal;text-indent:0;text-align:start;text-decoration:none;line-height:normal;letter-spacing:normal;word-spacing:normal;text-transform:none;direction:ltr;block-progression:tb;writing-mode:lr-tb;text-anchor:start;baseline-shift:baseline;color:#000000;fill:#3d6480;fill-opacity:1;stroke:none;stroke-width:4.85907269;marker:none;visibility:visible;display:inline;overflow:visible;enable-background:accumulate;font-family:Sans;-inkscape-font-specification:Sans" /><path
       inkscape:connector-curvature="0"
       id="rect9167"
       d="M 56.71875,259.68671 47,269.40546 l 4.84375,4.8125 9.71875,-9.71875 -4.84375,-4.8125 z"
       style="font-size:medium;font-style:normal;font-variant:normal;font-weight:normal;font-stretch:normal;text-indent:0;text-align:start;text-decoration:none;line-height:normal;letter-spacing:normal;word-spacing:normal;text-transform:none;direction:ltr;block-progression:tb;writing-mode:lr-tb;text-anchor:start;baseline-shift:baseline;color:#000000;fill:#3d6480;fill-opacity:1;fill-rule:nonzero;stroke:none;stroke-width:6.8161993;marker:none;visibility:visible;display:inline;overflow:visible;enable-background:accumulate;font-family:Sans;-inkscape-font-specification:Sans" /><path
       inkscape:connector-curvature="0"
       id="path9182"
       d="m 70.3125,273.28046 -9.71875,9.71875 4.8125,4.8125 9.71875,-9.71875 -4.8125,-4.8125 z"
       style="font-size:medium;font-style:normal;font-variant:normal;font-weight:normal;font-stretch:normal;text-indent:0;text-align:start;text-decoration:none;line-height:normal;letter-spacing:normal;word-spacing:normal;text-transform:none;direction:ltr;block-progression:tb;writing-mode:lr-tb;text-anchor:start;baseline-shift:baseline;color:#000000;fill:#3d6480;fill-opacity:1;fill-rule:nonzero;stroke:none;stroke-width:6.8161993;marker:none;visibility:visible;display:inline;overflow:visible;enable-background:accumulate;font-family:Sans;-inkscape-font-specification:Sans" /><path
       inkscape:connector-curvature="0"
       id="path9184"
       d="m 83.90625,286.87421 -9.71875,9.6875 4.8125,4.84375 9.71875,-9.71875 -4.8125,-4.8125 z"
       style="font-size:medium;font-style:normal;font-variant:normal;font-weight:normal;font-stretch:normal;text-indent:0;text-align:start;text-decoration:none;line-height:normal;letter-spacing:normal;word-spacing:normal;text-transform:none;direction:ltr;block-progression:tb;writing-mode:lr-tb;text-anchor:start;baseline-shift:baseline;color:#000000;fill:#3d6480;fill-opacity:1;fill-rule:nonzero;stroke:none;stroke-width:6.8161993;marker:none;visibility:visible;display:inline;overflow:visible;enable-background:accumulate;font-family:Sans;-inkscape-font-specification:Sans" /><path
       inkscape:connector-curvature="0"
       id="path9186"
       d="m 97.46875,300.43671 -9.71875,9.71875 4.84375,4.8125 9.71875,-9.71875 -4.84375,-4.8125 z"
       style="font-size:medium;font-style:normal;font-variant:normal;font-weight:normal;font-stretch:normal;text-indent:0;text-align:start;text-decoration:none;line-height:normal;letter-spacing:normal;word-spacing:normal;text-transform:none;direction:ltr;block-progression:tb;writing-mode:lr-tb;text-anchor:start;baseline-shift:baseline;color:#000000;fill:#3d6480;fill-opacity:1;fill-rule:nonzero;stroke:none;stroke-width:6.8161993;marker:none;visibility:visible;display:inline;overflow:visible;enable-background:accumulate;font-family:Sans;-inkscape-font-specification:Sans" /><path
       inkscape:connector-curvature="0"
       id="path9188"
       d="m 111.0625,314.03046 -9.71875,9.71875 4.8125,4.8125 9.71875,-9.71875 -4.8125,-4.8125 z"
       style="font-size:medium;font-style:normal;font-variant:normal;font-weight:normal;font-stretch:normal;text-indent:0;text-align:start;text-decoration:none;line-height:normal;letter-spacing:normal;word-spacing:normal;text-transform:none;direction:ltr;block-progression:tb;writing-mode:lr-tb;text-anchor:start;baseline-shift:baseline;color:#000000;fill:#3d6480;fill-opacity:1;fill-rule:nonzero;stroke:none;stroke-width:6.8161993;marker:none;visibility:visible;display:inline;overflow:visible;enable-background:accumulate;font-family:Sans;-inkscape-font-specification:Sans" /><path
       inkscape:connector-curvature="0"
       id="path9190"
       d="m 124.65625,327.62421 -9.71875,9.71875 4.8125,4.8125 9.71875,-9.71875 -4.8125,-4.8125 z"
       style="font-size:medium;font-style:normal;font-variant:normal;font-weight:normal;font-stretch:normal;text-indent:0;text-align:start;text-decoration:none;line-height:normal;letter-spacing:normal;word-spacing:normal;text-transform:none;direction:ltr;block-progression:tb;writing-mode:lr-tb;text-anchor:start;baseline-shift:baseline;color:#000000;fill:#3d6480;fill-opacity:1;fill-rule:nonzero;stroke:none;stroke-width:6.8161993;marker:none;visibility:visible;display:inline;overflow:visible;enable-background:accumulate;font-family:Sans;-inkscape-font-specification:Sans" /><path
       inkscape:connector-curvature="0"
       id="path9192"
       d="m 138.21875,341.18671 -9.6875,9.71875 4.8125,4.8125 9.71875,-9.71875 -4.84375,-4.8125 z"
       style="font-size:medium;font-style:normal;font-variant:normal;font-weight:normal;font-stretch:normal;text-indent:0;text-align:start;text-decoration:none;line-height:normal;letter-spacing:normal;word-spacing:normal;text-transform:none;direction:ltr;block-progression:tb;writing-mode:lr-tb;text-anchor:start;baseline-shift:baseline;color:#000000;fill:#3d6480;fill-opacity:1;fill-rule:nonzero;stroke:none;stroke-width:6.8161993;marker:none;visibility:visible;display:inline;overflow:visible;enable-background:accumulate;font-family:Sans;-inkscape-font-specification:Sans" /><path
       inkscape:connector-curvature="0"
       id="path9194"
       d="m 151.8125,354.78046 -9.71875,9.71875 4.8125,4.8125 9.71875,-9.71875 -4.8125,-4.8125 z"
       style="font-size:medium;font-style:normal;font-variant:normal;font-weight:normal;font-stretch:normal;text-indent:0;text-align:start;text-decoration:none;line-height:normal;letter-spacing:normal;word-spacing:normal;text-transform:none;direction:ltr;block-progression:tb;writing-mode:lr-tb;text-anchor:start;baseline-shift:baseline;color:#000000;fill:#3d6480;fill-opacity:1;fill-rule:nonzero;stroke:none;stroke-width:6.8161993;marker:none;visibility:visible;display:inline;overflow:visible;enable-background:accumulate;font-family:Sans;-inkscape-font-specification:Sans" /><path
       inkscape:connector-curvature="0"
       id="path9196"
       d="m 165.40625,368.37421 -9.71875,9.71875 4.8125,4.8125 9.71875,-9.71875 -4.8125,-4.8125 z"
       style="font-size:medium;font-style:normal;font-variant:normal;font-weight:normal;font-stretch:normal;text-indent:0;text-align:start;text-decoration:none;line-height:normal;letter-spacing:normal;word-spacing:normal;text-transform:none;direction:ltr;block-progression:tb;writing-mode:lr-tb;text-anchor:start;baseline-shift:baseline;color:#000000;fill:#3d6480;fill-opacity:1;fill-rule:nonzero;stroke:none;stroke-width:6.8161993;marker:none;visibility:visible;display:inline;overflow:visible;enable-background:accumulate;font-family:Sans;-inkscape-font-specification:Sans" /><path
       inkscape:connector-curvature="0"
       id="path9198"
       d="m 178.96875,381.93671 -9.6875,9.71875 4.8125,4.8125 9.71875,-9.6875 -4.84375,-4.84375 z"
       style="font-size:medium;font-style:normal;font-variant:normal;font-weight:normal;font-stretch:normal;text-indent:0;text-align:start;text-decoration:none;line-height:normal;letter-spacing:normal;word-spacing:normal;text-transform:none;direction:ltr;block-progression:tb;writing-mode:lr-tb;text-anchor:start;baseline-shift:baseline;color:#000000;fill:#3d6480;fill-opacity:1;fill-rule:nonzero;stroke:none;stroke-width:6.8161993;marker:none;visibility:visible;display:inline;overflow:visible;enable-background:accumulate;font-family:Sans;-inkscape-font-specification:Sans" /><path
       inkscape:connector-curvature="0"
       id="path9200"
       d="m 192.5625,395.53046 -9.71875,9.71875 4.8125,4.8125 9.71875,-9.71875 -4.8125,-4.8125 z"
       style="font-size:medium;font-style:normal;font-variant:normal;font-weight:normal;font-stretch:normal;text-indent:0;text-align:start;text-decoration:none;line-height:normal;letter-spacing:normal;word-spacing:normal;text-transform:none;direction:ltr;block-progression:tb;writing-mode:lr-tb;text-anchor:start;baseline-shift:baseline;color:#000000;fill:#3d6480;fill-opacity:1;fill-rule:nonzero;stroke:none;stroke-width:6.8161993;marker:none;visibility:visible;display:inline;overflow:visible;enable-background:accumulate;font-family:Sans;-inkscape-font-specification:Sans" /><path
       inkscape:connector-curvature="0"
       id="path9253"
       d="m 339.3125,260.06171 -4.8125,4.84375 9.71875,9.6875 4.84375,-4.8125 -9.75,-9.71875 z"
       style="font-size:medium;font-style:normal;font-variant:normal;font-weight:normal;font-stretch:normal;text-indent:0;text-align:start;text-decoration:none;line-height:normal;letter-spacing:normal;word-spacing:normal;text-transform:none;direction:ltr;block-progression:tb;writing-mode:lr-tb;text-anchor:start;baseline-shift:baseline;color:#000000;fill:#3d6480;fill-opacity:1;fill-rule:nonzero;stroke:none;stroke-width:6.8161993;marker:none;visibility:visible;display:inline;overflow:visible;enable-background:accumulate;font-family:Sans;-inkscape-font-specification:Sans" /><path
       inkscape:connector-curvature="0"
       id="path9255"
       d="m 325.75,273.65546 -4.8125,4.8125 9.6875,9.71875 4.84375,-4.8125 -9.71875,-9.71875 z"
       style="font-size:medium;font-style:normal;font-variant:normal;font-weight:normal;font-stretch:normal;text-indent:0;text-align:start;text-decoration:none;line-height:normal;letter-spacing:normal;word-spacing:normal;text-transform:none;direction:ltr;block-progression:tb;writing-mode:lr-tb;text-anchor:start;baseline-shift:baseline;color:#000000;fill:#3d6480;fill-opacity:1;fill-rule:nonzero;stroke:none;stroke-width:6.8161993;marker:none;visibility:visible;display:inline;overflow:visible;enable-background:accumulate;font-family:Sans;-inkscape-font-specification:Sans" /><path
       inkscape:connector-curvature="0"
       id="path9257"
       d="m 312.15625,287.21796 -4.8125,4.84375 9.71875,9.71875 4.8125,-4.84375 -9.71875,-9.71875 z"
       style="font-size:medium;font-style:normal;font-variant:normal;font-weight:normal;font-stretch:normal;text-indent:0;text-align:start;text-decoration:none;line-height:normal;letter-spacing:normal;word-spacing:normal;text-transform:none;direction:ltr;block-progression:tb;writing-mode:lr-tb;text-anchor:start;baseline-shift:baseline;color:#000000;fill:#3d6480;fill-opacity:1;fill-rule:nonzero;stroke:none;stroke-width:6.8161993;marker:none;visibility:visible;display:inline;overflow:visible;enable-background:accumulate;font-family:Sans;-inkscape-font-specification:Sans" /><path
       inkscape:connector-curvature="0"
       id="path9259"
       d="m 298.59375,300.81171 -4.84375,4.84375 9.71875,9.6875 4.8125,-4.8125 -9.6875,-9.71875 z"
       style="font-size:medium;font-style:normal;font-variant:normal;font-weight:normal;font-stretch:normal;text-indent:0;text-align:start;text-decoration:none;line-height:normal;letter-spacing:normal;word-spacing:normal;text-transform:none;direction:ltr;block-progression:tb;writing-mode:lr-tb;text-anchor:start;baseline-shift:baseline;color:#000000;fill:#3d6480;fill-opacity:1;fill-rule:nonzero;stroke:none;stroke-width:6.8161993;marker:none;visibility:visible;display:inline;overflow:visible;enable-background:accumulate;font-family:Sans;-inkscape-font-specification:Sans" /><path
       inkscape:connector-curvature="0"
       id="path9261"
       d="m 285,314.40546 -4.8125,4.8125 9.6875,9.71875 4.84375,-4.8125 L 285,314.40546 z"
       style="font-size:medium;font-style:normal;font-variant:normal;font-weight:normal;font-stretch:normal;text-indent:0;text-align:start;text-decoration:none;line-height:normal;letter-spacing:normal;word-spacing:normal;text-transform:none;direction:ltr;block-progression:tb;writing-mode:lr-tb;text-anchor:start;baseline-shift:baseline;color:#000000;fill:#3d6480;fill-opacity:1;fill-rule:nonzero;stroke:none;stroke-width:6.8161993;marker:none;visibility:visible;display:inline;overflow:visible;enable-background:accumulate;font-family:Sans;-inkscape-font-specification:Sans" /><path
       inkscape:connector-curvature="0"
       id="path9263"
       d="m 271.40625,327.99921 -4.8125,4.8125 9.71875,9.71875 4.8125,-4.84375 -9.71875,-9.6875 z"
       style="font-size:medium;font-style:normal;font-variant:normal;font-weight:normal;font-stretch:normal;text-indent:0;text-align:start;text-decoration:none;line-height:normal;letter-spacing:normal;word-spacing:normal;text-transform:none;direction:ltr;block-progression:tb;writing-mode:lr-tb;text-anchor:start;baseline-shift:baseline;color:#000000;fill:#3d6480;fill-opacity:1;fill-rule:nonzero;stroke:none;stroke-width:6.8161993;marker:none;visibility:visible;display:inline;overflow:visible;enable-background:accumulate;font-family:Sans;-inkscape-font-specification:Sans" /><path
       inkscape:connector-curvature="0"
       id="path9265"
       d="M 257.84375,341.56171 253,346.40546 l 9.71875,9.6875 4.8125,-4.8125 -9.6875,-9.71875 z"
       style="font-size:medium;font-style:normal;font-variant:normal;font-weight:normal;font-stretch:normal;text-indent:0;text-align:start;text-decoration:none;line-height:normal;letter-spacing:normal;word-spacing:normal;text-transform:none;direction:ltr;block-progression:tb;writing-mode:lr-tb;text-anchor:start;baseline-shift:baseline;color:#000000;fill:#3d6480;fill-opacity:1;fill-rule:nonzero;stroke:none;stroke-width:6.8161993;marker:none;visibility:visible;display:inline;overflow:visible;enable-background:accumulate;font-family:Sans;-inkscape-font-specification:Sans" /><path
       inkscape:connector-curvature="0"
       id="path9267"
       d="m 244.25,355.15546 -4.84375,4.8125 9.71875,9.71875 4.84375,-4.8125 -9.71875,-9.71875 z"
       style="font-size:medium;font-style:normal;font-variant:normal;font-weight:normal;font-stretch:normal;text-indent:0;text-align:start;text-decoration:none;line-height:normal;letter-spacing:normal;word-spacing:normal;text-transform:none;direction:ltr;block-progression:tb;writing-mode:lr-tb;text-anchor:start;baseline-shift:baseline;color:#000000;fill:#3d6480;fill-opacity:1;fill-rule:nonzero;stroke:none;stroke-width:6.8161993;marker:none;visibility:visible;display:inline;overflow:visible;enable-background:accumulate;font-family:Sans;-inkscape-font-specification:Sans" /><path
       inkscape:connector-curvature="0"
       id="path9269"
       d="m 230.65625,368.74921 -4.8125,4.8125 9.71875,9.71875 4.8125,-4.84375 -9.71875,-9.6875 z"
       style="font-size:medium;font-style:normal;font-variant:normal;font-weight:normal;font-stretch:normal;text-indent:0;text-align:start;text-decoration:none;line-height:normal;letter-spacing:normal;word-spacing:normal;text-transform:none;direction:ltr;block-progression:tb;writing-mode:lr-tb;text-anchor:start;baseline-shift:baseline;color:#000000;fill:#3d6480;fill-opacity:1;fill-rule:nonzero;stroke:none;stroke-width:6.8161993;marker:none;visibility:visible;display:inline;overflow:visible;enable-background:accumulate;font-family:Sans;-inkscape-font-specification:Sans" /><path
       inkscape:connector-curvature="0"
       id="path9271"
       d="m 217.09375,382.31171 -4.84375,4.84375 9.71875,9.71875 4.8125,-4.84375 -9.6875,-9.71875 z"
       style="font-size:medium;font-style:normal;font-variant:normal;font-weight:normal;font-stretch:normal;text-indent:0;text-align:start;text-decoration:none;line-height:normal;letter-spacing:normal;word-spacing:normal;text-transform:none;direction:ltr;block-progression:tb;writing-mode:lr-tb;text-anchor:start;baseline-shift:baseline;color:#000000;fill:#3d6480;fill-opacity:1;fill-rule:nonzero;stroke:none;stroke-width:6.8161993;marker:none;visibility:visible;display:inline;overflow:visible;enable-background:accumulate;font-family:Sans;-inkscape-font-specification:Sans" /><path
       inkscape:connector-curvature="0"
       id="path9273"
       d="m 203.5,395.90546 -4.84375,4.8125 9.71875,9.71875 4.84375,-4.8125 -9.71875,-9.71875 z"
       style="font-size:medium;font-style:normal;font-variant:normal;font-weight:normal;font-stretch:normal;text-indent:0;text-align:start;text-decoration:none;line-height:normal;letter-spacing:normal;word-spacing:normal;text-transform:none;direction:ltr;block-progression:tb;writing-mode:lr-tb;text-anchor:start;baseline-shift:baseline;color:#000000;fill:#3d6480;fill-opacity:1;fill-rule:nonzero;stroke:none;stroke-width:6.8161993;marker:none;visibility:visible;display:inline;overflow:visible;enable-background:accumulate;font-family:Sans;-inkscape-font-specification:Sans" /><g
       transform="translate(0,231.38445)"
       id="g4317"><g
         id="g4307"><path
           id="path4101"
           style="fill:none;stroke:#3d6480;stroke-width:4.85907269;stroke-miterlimit:4;stroke-opacity:1;stroke-dasharray:none"
           d="m 208.40877,-49.76622 -29.89,17.25 47.55,82.36 c 34.57,1.27 55.91,75.36 83.86,113.04 12.17,-8.38 15.55,10.98 45.47,41.94 l -146.99,-254.59 z"
           inkscape:connector-curvature="0" /><path
           id="rect3129"
           style="fill:none;stroke:#3d6480;stroke-width:4.85907269;stroke-miterlimit:4;stroke-opacity:1;stroke-dasharray:none"
           d="m 187.68877,-49.76622 29.89,17.25 -47.55,82.36 c -34.57,1.27 -55.91,75.36 -83.859997,113.04 -12.17,-8.38 -15.55,10.98 -45.47,41.94 l 146.989997,-254.59 z"
           inkscape:connector-curvature="0" /><path
           id="path7010"
           style="fill:#ffffff;stroke:#3d6480;stroke-width:4.85907316;stroke-miterlimit:4;stroke-opacity:1;stroke-dasharray:none"
           d="m 224.82016,-37.05474 a 27.615533,27.615533 0 1 1 -55.23106,0 27.615533,27.615533 0 1 1 55.23106,0 z"
           inkscape:connector-curvature="0" /><path
           id="path7012"
           style="fill:#ffffff;stroke:#3d6480;stroke-width:4.85907269;stroke-miterlimit:4;stroke-opacity:1;stroke-dasharray:none"
           d="m 219.47339,-37.054823 a 22.265705,22.265705 0 1 1 -44.53141,0 22.265705,22.265705 0 1 1 44.53141,0 z"
           inkscape:connector-curvature="0" /></g></g></g></g><path
   transform="matrix(1.1010929,0,0,1.1010929,-10.478242,18.434201)"
   d="m 37.337296,9.9351177 a 7.6974888,7.3926377 0 1 1 -15.394978,0 7.6974888,7.3926377 0 1 1 15.394978,0 z"
   sodipodi:ry="7.3926377"
   sodipodi:rx="7.6974888"
   sodipodi:cy="9.9351177"
   sodipodi:cx="29.639807"
   id="path5317"
   style="color:#000000;fill:#ffffff;fill-opacity:1;fill-rule:nonzero;stroke:none;stroke-width:0.80400002;marker:none;visibility:visible;display:inline;overflow:visible;enable-background:accumulate"
   sodipodi:type="arc" /><path
   inkscape:connector-curvature="0"
   id="path2830"
   style="fill:#3d6480;fill-opacity:1"
   d="m 22.046572,21.758483 c -4.213298,0 -7.628896,3.415731 -7.628896,7.628895 0,3.777771 2.746081,6.912737 6.351032,7.520558 l 0.0238,0.02776 c 0.01685,-0.0047 0.03342,-0.0097 0.05022,-0.01453 0.39221,0.06216 0.79439,0.09385 1.204117,0.09385 4.213294,0 7.628896,-3.414423 7.628896,-7.627593 0,-4.213294 -3.415731,-7.628891 -7.628896,-7.628891 z m -0.31325,0.760016 c 0.0045,0.002 0.0087,0.0046 0.01323,0.0066 -1.4097,0.751316 -2.561908,1.92276 -3.289773,3.346639 h -2.322302 c 1.149557,-1.928847 3.216676,-3.246478 5.59876,-3.353251 z m 0.633104,0 c 2.379383,0.108901 4.443591,1.426145 5.592229,3.353251 h -2.316992 c -0.727559,-1.423878 -1.878986,-2.595319 -3.288466,-3.346638 0.0045,-0.002 0.0087,-0.0046 0.01323,-0.0066 z m -0.430887,0.207515 v 3.145713 h -3.180083 c 0.717119,-1.342782 1.828996,-2.442346 3.180083,-3.145713 z m 0.265667,0.01983 c 1.333947,0.704153 2.431555,1.795537 3.141755,3.125915 h -3.141755 v -3.125916 z m -6.216154,3.390232 h 2.3421 c -0.438701,0.945019 -0.693319,1.99259 -0.719031,3.096811 h -2.435949 c 0.02474,-1.11836 0.315386,-2.171327 0.81288,-3.096811 z m 2.636876,0 h 3.313567 v 3.09681 h -4.061664 c 0.0267,-1.108311 0.292554,-2.156664 0.748097,-3.09681 z m 3.579235,0 h 3.27524 c 0.455366,0.940146 0.721426,1.988499 0.748096,3.09681 h -4.023336 v -3.09681 z m 3.570016,0 h 2.336833 c 0.497483,0.925484 0.788124,1.978451 0.812881,3.09681 h -2.430684 c -0.02572,-1.10422 -0.28049,-2.151791 -0.71903,-3.09681 z m -10.600138,3.361169 h 2.43595 c 0.01048,1.050619 0.227904,2.051283 0.614609,2.963323 h -2.328873 c -0.447231,-0.893982 -0.704978,-1.899652 -0.721686,-2.963323 z m 2.701613,0 h 4.063018 v 2.963323 H 18.511067 C 18.110073,31.553055 17.883578,30.55069 17.872654,29.497245 z m 4.328685,0 h 4.024684 c -0.01092,1.053575 -0.237584,2.055547 -0.63841,2.963323 h -3.386274 v -2.963323 z m 4.290351,0 h 2.430683 c -0.01669,1.063671 -0.274423,2.069341 -0.721689,2.963323 H 25.87708 c 0.386477,-0.911864 0.604121,-1.912838 0.61461,-2.963323 z m -10.457429,3.228991 h 2.305118 c 0.7008,1.494671 1.861843,2.730983 3.300387,3.526375 -2.414235,-0.140931 -4.493192,-1.527738 -5.605286,-3.526375 z m 2.599847,0 h 3.301694 v 3.382315 c -1.429494,-0.744267 -2.591969,-1.932545 -3.301694,-3.382315 z m 3.567361,0 h 3.263359 c -0.703281,1.438238 -1.850357,2.61951 -3.263359,3.365128 v -3.365128 z m 3.556787,0 h 2.301156 c -1.111182,1.996807 -3.18748,3.381966 -5.598759,3.525067 -0.06838,0.0041 -0.137294,0.0072 -0.20619,0.0093 -0.01759,3.93e-4 -0.03526,7.86e-4 -0.05286,0.0012 0.01406,-3.93e-4 0.02824,-7.86e-4 0.04229,-0.0012 0.0035,-1.29e-4 0.0071,1.33e-4 0.01056,0 0.06895,-0.0023 0.137746,-0.0052 0.206191,-0.0093 1.437673,-0.795215 2.597192,-2.031182 3.297732,-3.525067 z"
   inkscape:transform-center-x="21.172187"
   inkscape:transform-center-y="21.615583" /></svg>