<?xml version="1.0" encoding="UTF-8" standalone="no"?>
<!-- Generator: Adobe Illustrator 17.0.0, SVG Export Plug-In . SVG Version: 6.00 Build 0)  -->

<svg
   xmlns:dc="http://purl.org/dc/elements/1.1/"
   xmlns:cc="http://creativecommons.org/ns#"
   xmlns:rdf="http://www.w3.org/1999/02/22-rdf-syntax-ns#"
   xmlns:svg="http://www.w3.org/2000/svg"
   xmlns="http://www.w3.org/2000/svg"
   xmlns:sodipodi="http://sodipodi.sourceforge.net/DTD/sodipodi-0.dtd"
   xmlns:inkscape="http://www.inkscape.org/namespaces/inkscape"
   version="1.1"
   id="Layer_1"
   x="0px"
   y="0px"
   width="42px"
   height="42px"
   viewBox="0 0 42 42"
   enable-background="new 0 0 42 42"
   xml:space="preserve"
   inkscape:version="0.48.4 r9939"
   sodipodi:docname="GRN.svg"><metadata
   id="metadata3025"><rdf:RDF><cc:Work
       rdf:about=""><dc:format>image/svg+xml</dc:format><dc:type
         rdf:resource="http://purl.org/dc/dcmitype/StillImage" /><dc:title></dc:title></cc:Work></rdf:RDF></metadata><defs
   id="defs3023" /><sodipodi:namedview
   pagecolor="#ffffff"
   bordercolor="#666666"
   borderopacity="1"
   objecttolerance="10"
   gridtolerance="10"
   guidetolerance="10"
   inkscape:pageopacity="0"
   inkscape:pageshadow="2"
   inkscape:window-width="1920"
   inkscape:window-height="1018"
   id="namedview3021"
   showgrid="false"
   inkscape:zoom="9.4915442"
   inkscape:cx="42.377776"
   inkscape:cy="21.057823"
   inkscape:window-x="-8"
   inkscape:window-y="-8"
   inkscape:window-maximized="1"
   inkscape:current-layer="Layer_1" />
<g
   id="g3007">
	<rect
   x="7.943"
   y="28.05"
   fill="none"
   width="11.396"
   height="5.131"
   id="rect3009" />
	<rect
   x="7.943"
   y="14.916"
   fill="none"
   width="11.396"
   height="5.824"
   id="rect3011" />
	<rect
   x="7.943"
   y="21.541"
   fill="none"
   width="11.396"
   height="5.708"
   id="rect3013" />
	<rect
   x="7.943"
   y="8.731"
   fill="none"
   width="11.396"
   height="5.385"
   id="rect3015" />
	<polygon
   fill="#3D6480"
   points="36.857,25.256 36.857,22.609 26.862,22.609 32.124,28.837 26.862,35.064 36.857,35.064    36.857,32.397 35.158,32.397 35.158,33.365 30.524,33.365 34.349,28.837 30.524,24.309 35.158,24.309 35.158,25.256  "
   id="polygon3017" />
	<path
   fill="#3D6480"
   d="M6.244,34.88h14.795V7.031H6.244V34.88z M7.943,33.181V28.05H19.34v5.131H7.943z M19.34,21.541v5.708H7.943   v-5.708H19.34z M7.943,20.74v-5.824H19.34v5.824H7.943z M19.34,8.731v5.385H7.943V8.731H19.34z"
   id="path3019" />
</g>
<path
   inkscape:connector-curvature="0"
   id="path2830"
   style="fill:#3d6480;fill-opacity:1"
   d="m 31.94229,2.1191463 c -4.213298,0 -7.628896,3.4157309 -7.628896,7.6288954 0,3.7777693 2.746082,6.9127353 6.351032,7.5205563 l 0.0238,0.02776 c 0.01685,-0.0047 0.03342,-0.0097 0.05022,-0.01453 0.39221,0.06216 0.79439,0.09385 1.204117,0.09385 4.213294,0 7.628896,-3.414423 7.628896,-7.6275915 0,-4.2132944 -3.415731,-7.6288912 -7.628896,-7.6288912 z m -0.31325,0.7600165 c 0.0045,0.002 0.0087,0.00458 0.01323,0.00658 -1.4097,0.7513158 -2.561908,1.9227599 -3.289773,3.3466384 h -2.322301 c 1.149557,-1.9288462 3.216675,-3.246478 5.598759,-3.3532504 z m 0.633104,0 c 2.379383,0.1089011 4.443591,1.4261446 5.592229,3.3532512 H 35.537381 C 34.809822,4.8085355 33.658395,3.6370947 32.248915,2.8857756 c 0.0045,-0.002 0.0087,-0.00458 0.01323,-0.00658 z M 31.831257,3.0866771 V 6.2323907 H 28.651174 C 29.368293,4.8896082 30.48017,3.7900443 31.831257,3.0866771 z m 0.265667,0.019829 c 1.333947,0.7041532 2.431555,1.7955378 3.141755,3.1259154 H 32.096924 V 3.1065064 z m -6.216153,3.390232 H 28.22287 C 27.784169,7.4417579 27.529551,8.489329 27.503839,9.5935491 H 25.06789 c 0.02474,-1.1183597 0.315386,-2.1713264 0.812881,-3.0968107 z m 2.636875,0 h 3.313567 v 3.0968107 h -4.061664 c 0.0267,-1.1083117 0.292554,-2.1566644 0.748097,-3.0968107 z m 3.579235,0 h 3.27524 c 0.455366,0.9401463 0.721426,1.988499 0.748096,3.0968107 H 32.096881 V 6.4967384 z m 3.570016,0 h 2.336833 c 0.497483,0.9254843 0.788124,1.978451 0.812881,3.0968107 H 36.385927 C 36.360208,8.489329 36.105437,7.4417579 35.666897,6.4967384 z m -10.600138,3.36117 h 2.43595 c 0.01048,1.0506189 0.227904,2.0512829 0.614609,2.9633219 H 25.788445 C 25.341214,11.927249 25.083467,10.921579 25.066759,9.8579084 z m 2.701613,0 H 31.83139 V 12.82123 H 28.406785 C 28.005791,11.913718 27.779296,10.911353 27.768372,9.8579084 z m 4.328685,0 h 4.024684 c -0.01092,1.0535749 -0.237584,2.0555469 -0.63841,2.9633219 H 32.097057 V 9.8579084 z m 4.290351,0 h 2.430683 c -0.01669,1.0636709 -0.274423,2.0693409 -0.721689,2.9633219 h -2.323604 c 0.386477,-0.911863 0.604121,-1.912837 0.61461,-2.9633219 z M 25.92998,13.086898 h 2.305117 c 0.7008,1.494671 1.861843,2.730983 3.300387,3.526375 -2.414235,-0.140931 -4.493191,-1.527738 -5.605285,-3.526375 z m 2.599846,0 h 3.301694 v 3.382315 c -1.429494,-0.744267 -2.591969,-1.932545 -3.301694,-3.382315 z m 3.567361,0 h 3.263359 c -0.703281,1.438238 -1.850357,2.61951 -3.263359,3.365128 v -3.365128 z m 3.556787,0 h 2.301156 c -1.111182,1.996807 -3.18748,3.381966 -5.598759,3.525067 -0.06838,0.0041 -0.137294,0.0072 -0.20619,0.0093 -0.01759,3.93e-4 -0.03526,7.86e-4 -0.05286,0.0012 0.01406,-3.93e-4 0.02824,-7.86e-4 0.04229,-0.0012 0.0035,-1.29e-4 0.0071,1.33e-4 0.01056,0 0.06895,-0.0023 0.137746,-0.0052 0.206191,-0.0093 1.437673,-0.795215 2.597192,-2.031182 3.297732,-3.525067 z" /></svg>