<?xml version="1.0" encoding="UTF-8" standalone="no"?>
<!-- Generator: Adobe Illustrator 17.0.0, SVG Export Plug-In . SVG Version: 6.00 Build 0)  -->

<svg
   xmlns:dc="http://purl.org/dc/elements/1.1/"
   xmlns:cc="http://creativecommons.org/ns#"
   xmlns:rdf="http://www.w3.org/1999/02/22-rdf-syntax-ns#"
   xmlns:svg="http://www.w3.org/2000/svg"
   xmlns="http://www.w3.org/2000/svg"
   xmlns:sodipodi="http://sodipodi.sourceforge.net/DTD/sodipodi-0.dtd"
   xmlns:inkscape="http://www.inkscape.org/namespaces/inkscape"
   version="1.1"
   id="Layer_1"
   x="0px"
   y="0px"
   width="42px"
   height="42px"
   viewBox="0 0 42 42"
   enable-background="new 0 0 42 42"
   xml:space="preserve"
   inkscape:version="0.48.4 r9939"
   sodipodi:docname="FLT.svg"><metadata
   id="metadata5239"><rdf:RDF><cc:Work
       rdf:about=""><dc:format>image/svg+xml</dc:format><dc:type
         rdf:resource="http://purl.org/dc/dcmitype/StillImage" /><dc:title></dc:title></cc:Work></rdf:RDF></metadata><defs
   id="defs5237">
	
	
	
	
	
	
	
	
</defs><sodipodi:namedview
   pagecolor="#ffffff"
   bordercolor="#666666"
   borderopacity="1"
   objecttolerance="10"
   gridtolerance="10"
   guidetolerance="10"
   inkscape:pageopacity="0"
   inkscape:pageshadow="2"
   inkscape:window-width="1920"
   inkscape:window-height="1018"
   id="namedview5235"
   showgrid="false"
   inkscape:zoom="16.388069"
   inkscape:cx="9.7842464"
   inkscape:cy="21.54847"
   inkscape:window-x="-8"
   inkscape:window-y="-8"
   inkscape:window-maximized="1"
   inkscape:current-layer="Layer_1" />
<path
   style="fill:none"
   inkscape:connector-curvature="0"
   id="path5219"
   d="m 8.492,15.107 v 7.013 h 12.74 c -0.074,-0.229 -0.122,-0.449 -0.122,-0.677 0,-0.517 0.181,-1.001 0.521,-1.402 0.207,-0.244 0.472,-0.458 0.81,-0.649 0.489,-0.278 1.153,-0.521 1.972,-0.719 1.538,-0.372 3.565,-0.576 5.707,-0.576 0.23,0 0.446,0.02 0.673,0.025 V 15.108 H 8.492 z" /><polygon
   style="fill:none"
   id="polygon5221"
   points="21.816,23.319 8.492,23.319 8.492,29.87 25.308,29.87 " /><rect
   style="fill:#eff9fe"
   id="rect5223"
   height="6.3390002"
   width="22.299999"
   y="7.5689998"
   x="8.4919996" /><polygon
   style="fill:#3d6480"
   id="polygon5225"
   points="27.62,31.434 27.366,31.569 27.701,31.569 " /><path
   style="fill:#3d6480"
   inkscape:connector-curvature="0"
   id="path5227"
   d="M 8.492,29.87 V 23.319 H 21.817 L 21.338,22.42 c -0.049,-0.105 -0.073,-0.201 -0.105,-0.3 H 8.492 v -7.013 h 22.3 v 3.014 c 0.573,0.012 1.149,0.022 1.699,0.063 V 5.87 H 6.791 V 31.569 H 26.213 L 25.307,29.87 H 8.492 z m 22.3,-15.962 H 8.492 V 7.569 h 22.3 v 6.339 z" /><path
   style="fill:#fff5e6"
   inkscape:connector-curvature="0"
   id="path5229"
   d="m 30.119,20.196 c -4.161,0 -6.688,0.781 -7.035,1.251 l 0.239,0.402 c 0.915,0.469 3.201,1.041 6.796,1.041 3.593,0 5.878,-0.572 6.794,-1.04 l 0.248,-0.426 c -0.28,-0.423 -2.819,-1.228 -7.042,-1.228 z" /><path
   style="fill:#fff5e6"
   inkscape:connector-curvature="0"
   id="path5231"
   d="m 36.267,22.962 c -1.788,0.55 -4.436,0.729 -6.148,0.729 -1.708,0 -4.345,-0.178 -6.133,-0.725 l 5.913,9.955 v 2.467 h 0.574 v -2.464 l 5.794,-9.962 z" /><path
   style="fill:#ff9c04"
   inkscape:connector-curvature="0"
   id="path5233"
   d="m 34.548,19.336 c -1.491,-0.247 -3.145,-0.339 -4.429,-0.339 -3.065,0 -8.252,0.515 -8.252,2.446 0,0.164 0.029,0.312 0.124,0.514 l 5.629,9.477 0.08,0.135 1,1.683 v 3.336 h 2.973 V 33.249 L 38.279,21.88 c 0.062,-0.139 0.092,-0.285 0.092,-0.437 0,-1.122 -1.754,-1.764 -3.823,-2.107 z M 30.474,35.389 H 29.9 v -2.467 l -5.913,-9.955 c 1.788,0.547 4.425,0.725 6.133,0.725 1.712,0 4.36,-0.179 6.148,-0.729 l -5.793,9.963 v 2.463 z m 6.44,-13.538 c -0.916,0.468 -3.201,1.04 -6.794,1.04 -3.596,0 -5.882,-0.573 -6.796,-1.041 l -0.239,-0.402 c 0.348,-0.47 2.874,-1.251 7.035,-1.251 4.223,0 6.762,0.805 7.042,1.229 l -0.248,0.425 z" /><path
   transform="matrix(1.1010929,0,0,1.1010929,-3.0502678,-1.6032164)"
   d="m 37.337296,9.9351177 a 7.6974888,7.3926377 0 1 1 -15.394978,0 7.6974888,7.3926377 0 1 1 15.394978,0 z"
   sodipodi:ry="7.3926377"
   sodipodi:rx="7.6974888"
   sodipodi:cy="9.9351177"
   sodipodi:cx="29.639807"
   id="path5317"
   style="color:#000000;fill:#ffffff;fill-opacity:1;fill-rule:nonzero;stroke:none;stroke-width:0.80400002;marker:none;visibility:visible;display:inline;overflow:visible;enable-background:accumulate"
   sodipodi:type="arc" />
<path
   inkscape:connector-curvature="0"
   id="path2830"
   style="fill:#3d6480;fill-opacity:1"
   d="m 29.474546,1.7210663 c -4.213298,0 -7.628896,3.4157309 -7.628896,7.6288949 0,3.7777708 2.746081,6.9127368 6.351032,7.5205578 l 0.0238,0.02776 c 0.01685,-0.0047 0.03342,-0.0097 0.05022,-0.01453 0.39221,0.06216 0.79439,0.09385 1.204117,0.09385 4.213294,0 7.628896,-3.414423 7.628896,-7.6275928 0,-4.213294 -3.415731,-7.6288909 -7.628896,-7.6288909 z m -0.31325,0.760016 c 0.0045,0.002 0.0087,0.0046 0.01323,0.0066 -1.4097,0.7513159 -2.561908,1.9227599 -3.289773,3.3466389 h -2.322302 c 1.149557,-1.928847 3.216676,-3.2464779 5.59876,-3.3532509 z m 0.633104,0 c 2.379383,0.108901 4.443591,1.4261449 5.592229,3.3532509 h -2.316992 c -0.727559,-1.423878 -1.878986,-2.595319 -3.288466,-3.3466379 0.0045,-0.002 0.0087,-0.0046 0.01323,-0.0066 z m -0.430887,0.207515 V 5.8343102 H 26.18343 c 0.717119,-1.342782 1.828996,-2.442346 3.180083,-3.1457129 z m 0.265667,0.01983 c 1.333947,0.7041529 2.431555,1.7955369 3.141755,3.1259149 H 29.62918 V 2.7084263 z m -6.216154,3.3902319 h 2.3421 c -0.438701,0.945019 -0.693319,1.99259 -0.719031,3.096811 h -2.435949 c 0.02474,-1.11836 0.315386,-2.171327 0.81288,-3.096811 z m 2.636876,0 h 3.313567 v 3.09681 h -4.061664 c 0.0267,-1.108311 0.292554,-2.156664 0.748097,-3.09681 z m 3.579235,0 h 3.27524 c 0.455366,0.940146 0.721426,1.988499 0.748096,3.09681 h -4.023336 v -3.09681 z m 3.570016,0 h 2.336833 c 0.497483,0.925484 0.788124,1.978451 0.812881,3.09681 h -2.430684 c -0.02572,-1.10422 -0.28049,-2.151791 -0.71903,-3.09681 z m -10.600138,3.361169 h 2.43595 c 0.01048,1.0506188 0.227904,2.0512828 0.614609,2.9633228 H 23.320701 C 22.87347,11.529169 22.615723,10.523499 22.599015,9.4598282 z m 2.701613,0 h 4.063018 V 12.423151 H 25.939041 C 25.538047,11.515638 25.311552,10.513273 25.300628,9.4598282 z m 4.328685,0 h 4.024684 c -0.01092,1.0535748 -0.237584,2.0555468 -0.63841,2.9633228 H 29.629313 V 9.4598282 z m 4.290351,0 h 2.430683 c -0.01669,1.0636708 -0.274423,2.0693408 -0.721689,2.9633228 h -2.323604 c 0.386477,-0.911864 0.604121,-1.912838 0.61461,-2.9633228 z M 23.462235,12.688819 h 2.305118 c 0.7008,1.494671 1.861843,2.730983 3.300387,3.526375 -2.414235,-0.140931 -4.493192,-1.527738 -5.605286,-3.526375 z m 2.599847,0 h 3.301694 v 3.382315 c -1.429494,-0.744267 -2.591969,-1.932545 -3.301694,-3.382315 z m 3.567361,0 h 3.263359 c -0.703281,1.438238 -1.850357,2.61951 -3.263359,3.365128 v -3.365128 z m 3.556787,0 h 2.301156 c -1.111182,1.996807 -3.18748,3.381966 -5.598759,3.525067 -0.06838,0.0041 -0.137294,0.0072 -0.20619,0.0093 -0.01759,3.93e-4 -0.03526,7.86e-4 -0.05286,0.0012 0.01406,-3.93e-4 0.02824,-7.86e-4 0.04229,-0.0012 0.0035,-1.29e-4 0.0071,1.33e-4 0.01056,0 0.06895,-0.0023 0.137746,-0.0052 0.206191,-0.0093 1.437673,-0.795215 2.597192,-2.031182 3.297732,-3.525067 z"
   inkscape:transform-center-x="21.172187"
   inkscape:transform-center-y="21.615583" /></svg>